# xmcd CD database file
#
# Track frame offsets:
#	150
#	19778
#	54873
#	83884
#	101052
#	133210
#	158733
#	188933
#	219752
#
# Disc length: 3404 seconds
#
# Revision: 0
# Processed by: cddbd v1.5.2PL0 Copyright (c) Steve Scherf et al.
# Submitted via: CDex 1.51
#
DISCID=700d4a09
DTITLE=Graham Ord, Andrew Smith, Brian Webe - Chill
DYEAR=1900
DGENRE=New Age
TTITLE0=Ambrose Lane
TTITLE1=Angel Wing
TTITLE2=Café Byzantium
TTITLE3=Baroquenness
TTITLE4=Three Bars of Happiness
TTITLE5=Ring the Bells
TTITLE6=What's Not to Love
TTITLE7=In the Cool of the Day
TTITLE8=The Shadow
EXTD=
EXTT0=
EXTT1=
EXTT2=
EXTT3=
EXTT4=
EXTT5=
EXTT6=
EXTT7=
EXTT8=
PLAYORDER=
